<?xml version="1.0" encoding="utf-8"?>
<!-- Generator: Adobe Illustrator 26.4.1, SVG Export Plug-In . SVG Version: 6.00 Build 0)  -->
<svg version="1.1" id="图层_1" xmlns="http://www.w3.org/2000/svg" xmlns:xlink="http://www.w3.org/1999/xlink" x="0px" y="0px"
	 viewBox="0 0 1600 600" style="enable-background:new 0 0 1600 600;" xml:space="preserve">
<style type="text/css">
	.st0{fill:#EA595E;}
</style>
<g>
	<path class="st0" d="M212.38,255.77h-32.64v63.22c0,14.73-4.87,22.1-14.6,22.1c-8.37,0-12.55-5.54-12.55-16.64v-55.24
		c0-7.42-6.02-13.44-13.44-13.44H106.5v79.85c0,27.57,12.7,41.35,38.1,41.35c19.01,0,31.94-8.71,38.78-26.14l0.53,10.97
		c0.34,7.16,6.25,12.8,13.43,12.8h28.48V269.21C225.82,261.79,219.8,255.77,212.38,255.77z"/>
	<path class="st0" d="M341.01,257.15c-7.17-3.11-15.19-4.27-24.05-3.5c-9.57,0.84-18.14,3.75-25.74,8.73
		c-3.17,2.08-6.04,4.54-8.65,7.32v-34.17c0-7.42-6.02-13.44-13.44-13.44h-26.64v153.82h40.08v-55.75c0-6.59,0.98-12.03,2.95-16.3
		c1.97-4.27,4.71-7.55,8.23-9.84c3.51-2.28,7.38-3.61,11.6-3.98c5.9-0.52,10.51,1.02,13.82,4.61c3.3,3.6,4.96,9.64,4.96,18.13v49.68
		c0,7.42,6.02,13.44,13.44,13.44h26.64v-73.44c0-12.31-2.08-22.16-6.23-29.56C353.84,265.52,348.18,260.26,341.01,257.15z"/>
	<path class="st0" d="M476.14,262.64c-9.78-5.2-20.92-7.8-33.44-7.8c-12.52,0-23.63,2.6-33.33,7.8c-9.7,5.2-17.33,12.42-22.89,21.65
		c-5.56,9.23-8.33,19.85-8.33,31.86c0,12.01,2.77,22.67,8.33,31.97c5.55,9.3,13.18,16.59,22.89,21.86
		c9.7,5.27,20.81,7.91,33.33,7.91c12.52,0,23.66-2.64,33.44-7.91c9.77-5.27,17.4-12.56,22.89-21.86c5.48-9.3,8.23-19.96,8.23-31.97
		c0-12.01-2.74-22.63-8.23-31.86C493.54,275.06,485.91,267.85,476.14,262.64z M463.58,331.64c-2.11,4.32-4.96,7.58-8.54,9.78
		c-3.59,2.2-7.7,3.3-12.34,3.3c-4.5,0-8.54-1.1-12.13-3.3c-3.59-2.2-6.47-5.46-8.65-9.78c-2.18-4.32-3.27-9.48-3.27-15.49
		c0-6.01,1.09-11.1,3.27-15.27c2.18-4.17,5.06-7.36,8.65-9.56c3.59-2.2,7.63-3.3,12.13-3.3c4.64,0,8.76,1.1,12.34,3.3
		c3.58,2.2,6.43,5.38,8.54,9.56c2.11,4.18,3.16,9.27,3.16,15.27C466.75,322.16,465.69,327.32,463.58,331.64z"/>
	<path class="st0" d="M693.01,260.6c-6.96-3.13-14.87-4.3-23.73-3.53c-10.69,0.94-20.15,4.51-28.37,10.72
		c-4.41,3.33-8.21,5.28-11.43,7.91c-2.6-5.61-5.82-10.42-9.67-12.79c-7.8-4.81-16.84-6.77-27.11-5.87c-9,0.79-17.16,3.66-24.47,8.62
		c-3.61,2.45-6.85,5.38-9.7,8.79v-2.81c0-7.42-6.02-13.44-13.44-13.44h-24.74v117.72h40.08v-54.08c0-6.15,0.88-11.24,2.64-15.28
		c1.76-4.03,4.14-7.14,7.17-9.31c3.02-2.17,6.5-3.43,10.44-3.77c5.48-0.48,9.74,1.09,12.76,4.71c3.02,3.62,4.54,9.68,4.54,18.17
		v59.56h40.08v-54.15c0-6.15,0.84-11.24,2.53-15.27c1.69-4.03,4.08-7.13,7.17-9.31c3.09-2.17,6.54-3.43,10.34-3.76
		c5.34-0.47,9.56,1.11,12.66,4.72c3.09,3.61,4.64,9.67,4.64,18.16v46.17c0,7.42,6.02,13.44,13.44,13.44h26.64v-69.93
		c0-12.31-2-22.16-6.01-29.58C705.45,269,699.97,263.72,693.01,260.6z"/>
	<path class="st0" d="M1487.49,276.41c-4.01-7.41-9.49-12.68-16.45-15.81c-6.96-3.13-14.87-4.3-23.73-3.53
		c-10.69,0.94-20.15,4.51-28.37,10.72c-4.41,3.33-8.21,5.28-11.43,7.91c-2.6-5.61-5.82-10.42-9.67-12.79
		c-7.8-4.81-16.84-6.77-27.11-5.87c-9,0.79-17.16,3.66-24.47,8.62c-3.61,2.45-6.85,5.38-9.7,8.79v-2.81
		c0-7.42-6.02-13.44-13.44-13.44h-24.74v117.72h40.08v-54.08c0-6.15,0.88-11.24,2.64-15.28c1.76-4.03,4.14-7.14,7.17-9.31
		c3.02-2.17,6.5-3.43,10.44-3.77c5.48-0.48,9.74,1.09,12.76,4.71c3.02,3.62,4.54,9.68,4.54,18.17v59.56h40.08v-54.15
		c0-6.15,0.84-11.24,2.53-15.27c1.69-4.03,4.08-7.13,7.17-9.31c3.09-2.17,6.54-3.43,10.34-3.76c5.34-0.47,9.56,1.11,12.66,4.72
		c3.09,3.61,4.64,9.67,4.64,18.16v46.17c0,7.42,6.02,13.44,13.44,13.44h26.64v-69.93C1493.5,293.68,1491.5,283.82,1487.49,276.41z"
		/>
	<path class="st0" d="M823.28,261.98c-9.28-4.76-19.55-7.14-30.8-7.14c-11.96,0-22.71,2.6-32.28,7.8
		c-9.57,5.2-17.05,12.45-22.47,21.75c-5.41,9.3-8.12,19.89-8.12,31.75c0,11.87,2.77,22.45,8.33,31.75
		c5.55,9.3,13.36,16.63,23.42,21.97c10.05,5.35,21.83,8.02,35.33,8.02c10.97,0,20.46-1.65,28.48-4.94
		c8.02-3.3,14.77-8.09,20.25-14.39l-21.1-22.85c-3.94,3.52-7.91,6.12-11.92,7.8c-4.01,1.69-8.83,2.53-14.45,2.53
		c-6.05,0-11.25-1.13-15.61-3.4c-4.36-2.27-7.7-5.53-10.02-9.78c-1-1.83-1.77-3.81-2.33-5.93h83.02c0.14-1.61,0.28-3.37,0.42-5.27
		c0.14-1.9,0.21-3.59,0.21-5.06c0-13.18-2.74-24.39-8.23-33.62C839.95,273.74,832.56,266.75,823.28,261.98z M780.14,287.8
		c3.58-2.2,7.77-3.29,12.55-3.29c4.78,0,8.97,1.1,12.55,3.29c3.59,2.2,6.4,5.27,8.44,9.23c1.22,2.37,2.04,5.01,2.48,7.91h-46.79
		c0.48-2.84,1.28-5.44,2.44-7.8C773.78,293.12,776.56,290,780.14,287.8z"/>
	<path class="st0" d="M955.02,311.87c-4.01-2.56-8.44-4.5-13.29-5.82c-4.85-1.32-9.67-2.31-14.45-2.97
		c-4.78-0.66-9.18-1.32-13.19-1.98c-4.01-0.66-7.21-1.61-9.6-2.86c-2.39-1.24-3.59-3.04-3.59-5.38c0-2.34,1.37-4.32,4.11-5.93
		c2.74-1.61,7.49-2.42,14.24-2.42c5.06,0,10.41,0.62,16.03,1.87c5.62,1.25,11.25,3.55,16.88,6.92l6.8-16.04
		c3.17-7.47-0.96-15.95-8.75-18.21c-2.16-0.63-4.43-1.18-6.81-1.67c-8.23-1.68-16.35-2.53-24.36-2.53
		c-11.96,0-22.08,1.72-30.38,5.16c-8.3,3.44-14.59,8.13-18.88,14.06c-4.29,5.93-6.44,12.71-6.44,20.33c0,6.74,1.19,12.31,3.59,16.7
		c2.39,4.39,5.59,7.88,9.6,10.44c4.01,2.56,8.44,4.47,13.29,5.71c4.85,1.25,9.67,2.24,14.45,2.97c4.78,0.74,9.18,1.39,13.19,1.98
		c4.01,0.59,7.24,1.43,9.7,2.53c2.46,1.1,3.69,2.82,3.69,5.16c0,2.49-1.3,4.47-3.9,5.93c-2.61,1.47-7.28,2.2-14.03,2.2
		c-6.89,0-13.92-0.99-21.1-2.97c-7.17-1.98-13.43-4.65-18.78-8.02l-12.02,28.57c5.62,3.52,13.04,6.45,22.26,8.79
		c9.21,2.34,18.67,3.51,28.37,3.51c12.38,0,22.75-1.76,31.12-5.27c8.37-3.51,14.69-8.2,18.99-14.06c4.29-5.86,6.43-12.45,6.43-19.78
		c0-6.74-1.19-12.27-3.58-16.59C962.23,317.88,959.03,314.43,955.02,311.87z"/>
	<path class="st0" d="M1111.44,340.87c-3.94,2.56-8.22,3.85-12.87,3.85c-4.64,0-8.86-1.1-12.65-3.3c-3.8-2.2-6.79-5.42-8.97-9.67
		c-2.18-4.25-3.27-9.45-3.27-15.6c0-6.01,1.09-11.1,3.27-15.27c2.18-4.17,5.17-7.36,8.97-9.56c3.8-2.2,8.01-3.3,12.65-3.3
		c4.64,0,8.93,1.28,12.87,3.85c3.94,2.56,7.24,6.63,9.92,12.2l18.85-10.02c7.52-4,9.53-13.94,4.06-20.47
		c-3.31-3.96-7.29-7.35-11.94-10.16c-9.42-5.71-20.6-8.57-33.54-8.57c-12.66,0-23.94,2.6-33.86,7.8
		c-9.91,5.2-17.69,12.42-23.31,21.65c-5.63,9.23-8.44,19.85-8.44,31.86c0,12.01,2.81,22.67,8.44,31.97
		c5.62,9.3,13.4,16.59,23.31,21.86c9.91,5.27,21.2,7.91,33.86,7.91c12.94,0,24.12-2.86,33.54-8.57c9.42-5.71,16.1-13.77,20.04-24.17
		l-31.01-16.48C1118.69,334.25,1115.38,338.31,1111.44,340.87z"/>
	<path class="st0" d="M1255,262.64c-9.78-5.2-20.92-7.8-33.44-7.8s-23.63,2.6-33.33,7.8c-9.7,5.2-17.33,12.42-22.89,21.65
		c-5.56,9.23-8.33,19.85-8.33,31.86c0,12.01,2.77,22.67,8.33,31.97c5.55,9.3,13.18,16.59,22.89,21.86
		c9.7,5.27,20.81,7.91,33.33,7.91s23.66-2.64,33.44-7.91c9.77-5.27,17.4-12.56,22.89-21.86c5.48-9.3,8.23-19.96,8.23-31.97
		c0-12.01-2.74-22.63-8.23-31.86C1272.4,275.06,1264.77,267.85,1255,262.64z M1242.45,331.64c-2.11,4.32-4.96,7.58-8.54,9.78
		c-3.59,2.2-7.7,3.3-12.34,3.3c-4.5,0-8.54-1.1-12.13-3.3c-3.59-2.2-6.47-5.46-8.65-9.78c-2.18-4.32-3.27-9.48-3.27-15.49
		c0-6.01,1.09-11.1,3.27-15.27c2.18-4.17,5.06-7.36,8.65-9.56c3.59-2.2,7.63-3.3,12.13-3.3c4.64,0,8.76,1.1,12.34,3.3
		c3.58,2.2,6.43,5.38,8.54,9.56c2.11,4.18,3.16,9.27,3.16,15.27C1245.61,322.16,1244.56,327.32,1242.45,331.64z"/>
	
		<ellipse transform="matrix(0.9732 -0.2298 0.2298 0.9732 -54.7159 239.9083)" class="st0" cx="1002.88" cy="354.92" rx="22.98" ry="22.98"/>
</g>
</svg>
