<?xml version="1.0" encoding="utf-8"?>
<!-- Generator: Adobe Illustrator 25.0.0, SVG Export Plug-In . SVG Version: 6.00 Build 0)  -->
<svg version="1.1" id="图层_1" xmlns="http://www.w3.org/2000/svg" xmlns:xlink="http://www.w3.org/1999/xlink" x="0px" y="0px"
	 viewBox="0 0 1600 600" style="enable-background:new 0 0 1600 600;" xml:space="preserve">
<style type="text/css">
	.st0{fill:#FFFFFF;}
</style>
<g>
	<path class="st0" d="M1188.88,246.71v164.46c0,0-6.84,33.8-53.46,33.8h-13.34V160.99h275.78v56.74c0,15.86-13.12,28.98-28.98,28.98
		H1188.88z M1188.88,223.52h128.15c4.57,0,8.85-4.27,8.85-8.85v-30.5h-137V223.52z M1198.34,282.09h65.01v-27.15h66.5v27.15H1400
		v11.78c0,6.3-5.1,11.4-11.4,11.4h-58.76v32.33h64.66v78.39c0,15.94-13.04,28.98-28.98,28.98h-166.85V337.6h64.67v-32.33h-65.01
		V282.09z M1331.98,361.09h-70.77v60.7h62.22c4.88,0,8.54-3.96,8.54-8.85V361.09z"/>
	<g>
		<path class="st0" d="M1059.58,252.38l30.89-90.47H944.36v17.39h0.01v5.82h75.3l-23.84,64.21v19.22h-50.67v23.16h50.67v121.84
			c0,4.88-3.97,8.85-9.45,8.85h-25.22v22.88h67.31c17.08,0,31.11-12.81,31.11-28.67V291.72h17.51c6.14,0,11.11-4.97,11.11-11.11
			v-12.05h-28.62V252.38z"/>
		<path class="st0" d="M938.56,190.88h-63.44l3.05-36.3h-55.82l-3.05,36.3h-16.47v23.49h14.64L807.4,336.38l32.64,50.94
			l-37.52,57.35h0.21c31.68,0,65.06-14.34,65.06-14.34l9.15,14.34h58.56l-38.13-58.57l29.28-43.92L938.56,190.88z M876.04,331.81
			l-7.02,10.98l-5.8-8.84l9.76-119.57h14.03L876.04,331.81z"/>
	</g>
	<g>
		<path class="st0" d="M470.5,290.36V278.1H282.66v-33.27h163.49c16.78,0,30.2-13.12,30.2-28.98v-53.04H212.81v138.71h246.53
			C465.5,301.53,470.5,296.53,470.5,290.36z M282.66,184.78H406.2v28.12c0,4.58-3.96,8.85-8.85,8.85H282.66V184.78z"/>
		<path class="st0" d="M458.66,350.96v-31.78h-71.07v31.78h-79.31h-3.94l7.51-31.67h-72.2l-6.84,31.67H200v20.13h28.47l-16.04,74.25
			h15.46c48.88,0,62.17-34.14,62.17-34.14l9.51-40.11h5.36h82.66v74.18h71.07V371.1h20.39c5.25,0,9.5-4.26,9.5-9.5v-10.63H458.66z"
			/>
	</g>
	<path class="st0" d="M711.68,267.49c0,0-27.62,48.91-50.22,88.9h-34.94l90.86-160.72H647.9l-33.24,58.82h-37.06l52.41-92.72h-69.48
		l-42.62,75.39l0.07,0.06l-5.78,10.22c0,16.78,13.11,30.2,28.98,30.2h23.33l0,0l0,0h26.09l0,0h10.98l-16.08,28.45l-0.01-0.02
		l-24.47,43.28c0,0.02,0,0.03,0,0.05l-17.07,30.2l69.48-0.05l0,0h25.98l0,0h8.97c-8.66,15.31-14.92,26.37-15.73,27.75
		c-2.96,5.08-12.76,14.95-26.04,14.95h-87.06v11.73c0,6.31,5.12,11.43,11.43,11.43h80.12h26.28c28.97,0,52.34-16.82,64.5-37.67
		c12.15-20.85,79.29-140.25,79.29-140.25H711.68z"/>
</g>
</svg>
