<?xml version="1.0" encoding="utf-8"?>
<!-- Generator: Adobe Illustrator 28.4.1, SVG Export Plug-In . SVG Version: 6.00 Build 0)  -->
<svg version="1.1" id="_图层_2" xmlns="http://www.w3.org/2000/svg" xmlns:xlink="http://www.w3.org/1999/xlink" x="0px" y="0px"
	 viewBox="0 0 1359.1 102.1" style="enable-background:new 0 0 1359.1 102.1;" xml:space="preserve">
<style type="text/css">
	.st0{fill:#FF5A5F;}
	.st1{fill-rule:evenodd;clip-rule:evenodd;fill:#1E93FA;}
	.st2{fill-rule:evenodd;clip-rule:evenodd;fill:#2C3033;}
	.st3{fill:#2C3033;}
	.st4{fill:#00BEBD;}
</style>
<g>
	<g>
		<path class="st0" d="M276.3,36.1v46c0,0-1.9,9.4-15,9.4h-3.7V12.1h77V28c0,4.4-3.7,8.1-8.1,8.1H276.3z M276.3,29.6h35.8
			c1.3,0,2.5-1.2,2.5-2.5v-8.5h-38.3V29.6L276.3,29.6z M278.9,46h18.2v-7.6h18.6V46h19.6v3.3c0,1.8-1.4,3.2-3.2,3.2h-16.4v9h18.1
			v21.9c0,4.5-3.6,8.1-8.1,8.1H279v-30h18.1v-9h-18.2V46L278.9,46z M316.3,68.1h-19.8v17h17.4c1.4,0,2.4-1.1,2.4-2.5V68.1
			L316.3,68.1z"/>
		<g>
			<path class="st0" d="M240.2,37.7l8.6-25.3h-40.9v4.9l0,0v1.6H229l-6.7,18v5.4h-14.2v6.5h14.2v34.1c0,1.4-1.1,2.5-2.6,2.5h-7v6.4
				h18.8c4.8,0,8.7-3.6,8.7-8V48.7h4.9c1.7,0,3.1-1.4,3.1-3.1v-3.4h-8L240.2,37.7L240.2,37.7L240.2,37.7z"/>
			<path class="st0" d="M206.4,20.5h-17.7l0.9-10.2H174l-0.9,10.2h-4.6v6.6h4.1l-2.8,34.1l9.1,14.2l-10.5,16h0.1
				c8.9,0,18.2-4,18.2-4l2.6,4h16.4L195,75l8.2-12.3L206.4,20.5L206.4,20.5z M188.9,59.9l-2,3.1l-1.6-2.5l2.7-33.4h3.9L188.9,59.9
				L188.9,59.9L188.9,59.9z"/>
		</g>
		<g>
			<path class="st0" d="M75.6,48.3v-3.4H23.2v-9.3h45.7c4.7,0,8.4-3.7,8.4-8.1V12.7H3.6v38.8h68.8C74.2,51.5,75.6,50.1,75.6,48.3
				L75.6,48.3z M23.2,18.8h34.5v7.9c0,1.3-1.1,2.5-2.5,2.5H23.1L23.2,18.8L23.2,18.8z"/>
			<path class="st0" d="M72.3,65.3v-8.9H52.4v8.9H29.2l2.1-8.9H11.1l-1.9,8.9H0v5.6h8L3.5,91.7h4.3c13.7,0,17.4-9.6,17.4-9.6
				l2.7-11.2h24.6v20.7h19.9V70.9H78c1.5,0,2.7-1.2,2.7-2.7v-3L72.3,65.3L72.3,65.3z"/>
		</g>
		<path class="st0" d="M143,41.9c0,0-7.7,13.7-14,24.9h-9.8l25.4-44.9h-19.4l-9.3,16.4h-10.4l14.7-25.9h-19.4l-12,21.1l0,0l-1.6,2.9
			c0,4.7,3.7,8.4,8.1,8.4h16.9l-4.5,8l0,0l-6.8,12.1l0,0l-4.8,8.4h29.2c-2.4,4.3-4.2,7.4-4.4,7.8c-0.8,1.4-3.6,4.2-7.3,4.2H89.3v3.3
			c0,1.8,1.4,3.2,3.2,3.2h29.8c8.1,0,14.6-4.7,18-10.5c3.4-5.8,22.2-39.2,22.2-39.2H143L143,41.9L143,41.9z"/>
	</g>
	<g>
		<path class="st1" d="M564.9,9.7C559.3,3.4,551.3,0,542.5,0h-34c-3.3,0-6,2.4-6.3,5.7l-2.5,23.7h-19.5c-3.3,0-6,2.5-6.3,5.7
			l-3.5,33.8c-0.9,8.8,1.7,17.2,7.4,23.5c5.7,6.3,13.7,9.7,22.5,9.7c17.7,0,33.6-14.3,35.4-31.9l0.5-5.1h0.8
			c17.7,0,33.6-14.3,35.4-31.9C573.2,24.4,570.6,16,564.9,9.7L564.9,9.7z M500.3,89.4c-5.2,0-9.8-2-13.1-5.6s-4.8-8.5-4.2-13.7
			l2.9-28.1h12.4l-2.4,22.4c-0.2,2.3,0.8,4.5,2.7,5.9c1.1,0.7,2.3,1.1,3.6,1.1c1,0,2-0.2,2.9-0.7l11.3-5.7h7l-0.4,3.8l0,0
			C521.9,80.2,511.6,89.4,500.3,89.4L500.3,89.4L500.3,89.4z M524.8,52.4H515c-1,0-2,0.2-2.9,0.7l-2.2,1.1l1.3-12.2H526L524.8,52.4
			L524.8,52.4L524.8,52.4z M559.8,31.9L559.8,31.9c-1.2,11.1-11.1,20.2-22.2,20.5l1.7-16.1v-1.5c0-0.2,0-0.4-0.1-0.6v-0.1
			c0-0.2-0.1-0.3-0.1-0.5c0-0.1,0-0.1-0.1-0.2c0-0.1-0.1-0.3-0.2-0.4c0-0.1-0.1-0.1-0.1-0.2c-0.1-0.1-0.1-0.2-0.2-0.4
			c0-0.1-0.1-0.1-0.1-0.2c-0.1-0.1-0.1-0.2-0.2-0.3c0-0.1-0.1-0.1-0.2-0.2c-0.1-0.1-0.2-0.2-0.2-0.3l-0.1-0.1l-0.1-0.1
			c-0.1-0.1-0.2-0.2-0.3-0.3s-0.1-0.1-0.2-0.2c-0.1-0.1-0.2-0.2-0.3-0.3c-0.1-0.1-0.1-0.1-0.2-0.1c-0.1-0.1-0.2-0.2-0.4-0.2
			c0,0-0.1-0.1-0.2-0.1c-0.2-0.1-0.3-0.2-0.5-0.2c0,0-0.1,0-0.1-0.1c-0.2-0.1-0.3-0.1-0.5-0.2h-0.1c-0.2-0.1-0.3-0.1-0.5-0.1h-0.1
			c-0.2,0-0.3-0.1-0.5-0.1h-21.3l1.8-16.8h28.2c5.2,0,9.8,2,13.1,5.5C558.8,21.8,560.3,26.7,559.8,31.9L559.8,31.9L559.8,31.9z"/>
		<path class="st2" d="M773.4,25.6h-9.2L764,28h9.2L773.4,25.6z M645.9,25h-41.8l-0.4,4.1h41.8L645.9,25L645.9,25z M852,26.7h-10.9
			l-0.3,2.7h11L852,26.7z M868.3,26.7h-5.5l-0.3,2.7h5.5L868.3,26.7z M772.3,35.7h-9.2l-0.3,2.5h9.2L772.3,35.7z M828.9,38.2h-5.5
			l-0.3,2.7h5.5L828.9,38.2z M850.8,38.2h-11l-0.3,2.7h10.9L850.8,38.2L850.8,38.2z M774.3,14.2l-0.4,3.8h3.5c3,0,5.2,2.4,4.9,5.4
			l-2.4,22.5h-21.2c-3,0-5.2-2.4-4.9-5.4l2.4-22.5h9l0.4-3.8H774.3z M842.4,14.2L842,18h11l0.4-3.8h10.9l-0.4,3.8h11
			c3,0,5.2,2.4,4.9,5.5l-0.3,3.3l-0.3,2.7l-0.5,4.4l-0.5,4.4h-16.4l-0.3,2.7h11c3,0,5.2,2.4,4.9,5.5l-0.3,3.3l-0.3,3.3h-11l0.3-3.3
			h-5.5l-0.3,3.3h-10.9l0.3-3.3h-11l-0.3,3.3h-10.9l0.3-3.3h-11c-3,0-5.2-2.4-4.9-5.5l0.1-1.1l0.2-2.2l0.3-2.7l0.7-6.5l0.2-2.2h16.4
			l0.3-2.7h-16.4l0.9-8.7H831l0.4-3.8L842.4,14.2L842.4,14.2L842.4,14.2z M652.6,14.2c3,0,5.2,2.4,4.9,5.4l-0.6,5.4l-0.4,4.1
			l-1.2,10.8h-52.7l-0.4,4.1h53.2l-1.2,10.8h-58.7c-3,0-5.2-2.4-4.9-5.4l0.6-5.4l2-19l1.2-10.8L652.6,14.2L652.6,14.2z M754.9,14.2
			l-7.1,23.6h4.4l-7.6,24.1h4.1l-1,9.4h-16.1l7.4-23.1h-5.8l11.2-34.1L754.9,14.2L754.9,14.2L754.9,14.2z M870.4,54.3
			c3,0,5.2,2.4,4.9,5.4l-0.5,4.3l-1,9.6H863l1-9.6h-43.7l-1,9.6h-10.9l1-9.6l1-9.8L870.4,54.3L870.4,54.3L870.4,54.3z M770.5,47.7
			l-0.4,3.8h8.9l-0.9,8.7h-15.1c-0.1,0.9-0.2,1.8-0.3,2.7h9.7c3,0,5.2,2.4,4.8,5.4l-0.6,5.4l-1.5,14.1h-9.2l1.5-14.1h-6.2
			c-0.9,5.8-2.2,10.7-4,14.1h-9.2c3-6.1,4.8-17.6,5.8-27.7h-2.4l0.9-8.7h8.9l0.4-3.8L770.5,47.7L770.5,47.7L770.5,47.7z M847.9,65.2
			L847.9,65.2c-1,10.5,13.6,12.2,26.2,12.7l-1,10c-14.4,0-26.1-2.4-32.1-8.8c-7.3,6.4-19.5,8.8-33.9,8.8l1.1-10
			c12.7-0.5,27.6-2.2,28.8-12.6L847.9,65.2L847.9,65.2z M795.6,14.2l-0.9,8.3h6.9c3,0,5.2,2.4,4.9,5.4l-0.3,3.2l0,0
			c-1.9,18.2-3.6,32-9.8,42c1.3,1.3,3,2.5,5,3.4l-1.2,11.4c-4.6-1.7-8.1-4-10.8-6.7c-3.2,2.6-7.1,4.9-11.8,6.7l1.2-11.4
			c2-1.3,3.8-2.6,5.3-3.9c-3.7-10.1-2.3-23.4-0.8-38.3h9.2c-1.2,11.5-2,20.5-1.1,27.4c2.5-6.8,3.6-16.1,5-30.5h-12.8l1.8-17
			L795.6,14.2L795.6,14.2z M704,14.2c-2.8,8.6-8.9,16.8-16,23.3h11.5c2.9-3.4,5.4-7,7.5-10.8h12.1c-5.4,12-13.8,21.8-23.5,29.2h15.6
			c3.5-4.3,6.2-9.4,7.7-15.1h11.4c-8.5,33.1-38.2,47.1-70.7,47.1l1.1-10.9c12.7,0,26.8-3.3,38.1-10.3h-37l1.1-10.9h12.4
			c4.4-1.9,8.8-4.5,12.8-7.6h-24.5l1.1-10.9h5.6c7.5-3.7,18.3-14.6,21.7-23.3L704,14.2L704,14.2L704,14.2z M607.6,56.7
			c-0.1,1.3-0.3,2.5-0.4,3.7H637l0.4-3.7h11.2l-0.4,3.7h7.9L655,71.2h-7.9l-1.8,16.7h-11.2l1.8-16.7h-30.2c-1.6,8.6-3.7,13-6.7,16.7
			h-12c3.3-4.2,5.5-9.2,7.2-16.7h-8.4l1.1-10.8h9.1c0.2-1.2,0.3-2.4,0.5-3.7L607.6,56.7L607.6,56.7z M747.3,77l-1.1,10.9h-15
			l1.1-10.9H747.3z"/>
	</g>
	<path class="st3" d="M404.6,85.4c-0.9,0-1.6-0.7-1.6-1.6V18.3c0-0.9,0.7-1.6,1.6-1.6s1.6,0.7,1.6,1.6v65.5
		C406.1,84.7,405.4,85.4,404.6,85.4L404.6,85.4z"/>
	<path class="st3" d="M945.3,85.4c-0.9,0-1.6-0.7-1.6-1.6V18.3c0-0.9,0.7-1.6,1.6-1.6c0.9,0,1.6,0.7,1.6,1.6v65.5
		C946.9,84.7,946.2,85.4,945.3,85.4L945.3,85.4z"/>
	<g>
		<path class="st4" d="M1073.5,53.3v7.6h19.2v9.4h-19.2v18.8h-10.9V70.2h-25.2c-2,7.1-7.5,14.4-21.1,19.3c-1.4-2.4-4.8-6.3-7.1-8.2
			c9.2-3,13.9-7,16.3-11.1h-16.4v-9.4h18.7v-0.2v-7.4h10.9v7.6h24v-7.6H1073.5z M1017.1,12.3h64.5v23c2.7,1.5,7.1,2.7,10.2,3.1
			c-1.7,10.3-5.5,12.8-19.4,12.8c-4.3,0-28,0-32.1,0c-18.1,0-23.1-2.6-23.1-13.1V17.9V12.3z M1028,27.1h42.8v-6.2H1028V27.1z
			 M1028,35.7v2.2c0,3.7,1.7,4.4,12.1,4.4c4.8,0,25.5,0,31.7,0c7.3,0,8.7-0.9,9.6-6.6H1028z"/>
		<path class="st4" d="M1181.4,45.4c-13.1,26.7-38.5,38.4-73.4,43.8c-1.1-2.7-4.2-7.7-6.2-10.3c24.8-2.8,44.1-8.9,56.6-21.1
			c-39.1,2.9-44.9,3.7-48.9,5.2c-0.5-2.1-2.4-7.2-3.7-10.1c4.1-0.6,7.7-2.2,13.9-5.2c3.4-1.5,10-4.9,17.6-9.5
			c-18.5,1.5-22,2.1-24.5,3c-0.5-2.1-2.3-7.2-3.5-10.1c2.7-0.4,4.9-1.9,8.3-4c3.8-2.2,14.9-10.6,22.7-19.3l10,6
			c-6,5.8-13.1,11.4-20.2,16.3l21.9-1.4c3.7-2.6,7.3-5.4,10.6-8.3l9.8,7.1c-11.4,9-24,16.5-36.4,22.6l30.1-1.9
			c1.3-2.1,2.4-4.2,3.4-6.4L1181.4,45.4z"/>
		<path class="st4" d="M1232.3,8.6c-0.1,3.7-0.3,8.3-0.6,13.7c1.3,11.7,7,43.9,39,57.4c-3.4,2.5-6.5,6-8,8.9
			c-20.4-9.1-30.7-26.1-35.9-40.9c-5,15.2-14.7,30.9-33.9,41.4c-1.9-2.8-5.5-6.1-9.1-8.4c37.3-18.7,35.6-57.4,36-72.1H1232.3z"/>
		<path class="st4" d="M1338.3,8.5v16.9h20.8V36h-20.8v39.5c0,6.4-1.5,9.4-5.6,11c-4.1,1.7-10.4,2-19.5,2c-0.5-3.1-2.3-8-3.8-11
			c5.8,0.3,12.3,0.3,14.2,0.3c1.8-0.1,2.6-0.6,2.6-2.2V39.3c-10.1,16-25.8,31.8-42,40.8c-2-2.9-5.7-6.9-8.8-9.3
			c15.3-7.1,29.9-20.7,39.4-34.7h-36.3V25.4h47.7V8.5H1338.3z"/>
	</g>
</g>
</svg>
